<?xml version="1.0" encoding="UTF-8"?>
<!DOCTYPE svg PUBLIC "-//W3C//DTD SVG 1.1//EN" "http://www.w3.org/Graphics/SVG/1.1/DTD/svg11.dtd">
<!-- Creator: CorelDRAW 2018 (64-Bit) -->
<svg xmlns="http://www.w3.org/2000/svg" xml:space="preserve" width="103.499mm" height="12.0859mm" version="1.1" style="shape-rendering:geometricPrecision; text-rendering:geometricPrecision; image-rendering:optimizeQuality; fill-rule:evenodd; clip-rule:evenodd"
viewBox="0 0 7846.62 916.27"
 xmlns:xlink="http://www.w3.org/1999/xlink">
 <defs>
  <style type="text/css">
   <![CDATA[
    .fil1 {fill:#2B4461;fill-rule:nonzero}
    .fil0 {fill:#4986CC;fill-rule:nonzero}
   ]]>
  </style>
 </defs>
 <g id="Слой_x0020_1">
  <metadata id="CorelCorpID_0Corel-Layer"/>
  <g id="_2026936031648">
   <path class="fil0" d="M306.82 239.47c-34.07,34.08 -34.07,89.32 0,123.39l132.06 132.07c34.08,34.07 89.32,34.07 123.39,0l-255.45 -255.45z"/>
   <path class="fil0" d="M681.3 348.22c-7.87,-7.86 -20.61,-7.86 -28.48,0l-33.22 33.22 -28.47 -28.48 33.22 -33.22c7.85,-7.86 7.85,-20.61 0,-28.47 -7.87,-7.87 -20.61,-7.87 -28.48,0l-33.22 33.21 -28.47 -28.47 33.21 -33.22c7.87,-7.85 7.87,-20.61 0,-28.47 -7.86,-7.86 -20.61,-7.86 -28.47,0l-33.22 33.21 -28.47 -28.47 33.21 -33.21c7.87,-7.86 7.87,-20.61 0,-28.47 -7.86,-7.87 -20.61,-7.87 -28.47,0l-33.22 33.21 -28.47 -28.46 33.21 -33.22c7.86,-7.86 7.86,-20.61 0,-28.48 -7.85,-7.86 -20.61,-7.86 -28.47,0l-90.16 90.16 256.24 256.25 90.16 -90.16c7.85,-7.87 7.85,-20.61 0,-28.48z"/>
   <path class="fil0" d="M187.79 585.48c-7.85,7.85 -7.85,20.62 0,28.47 7.85,7.85 20.62,7.85 28.47,0l14.24 -14.23 -28.48 -28.48 -14.23 14.24z"/>
   <path class="fil0" d="M244.73 528.54l-14.24 14.24 28.47 28.47 14.25 -14.24c7.84,-7.85 7.85,-20.62 0,-28.47 -7.85,-7.85 -20.62,-7.85 -28.48,0z"/>
   <path class="fil0" d="M37.93 680.04c-11.95,17.82 -13.37,40.59 -4.3,59.6l-27.73 27.73c-7.86,7.87 -7.86,20.61 0,28.48 7.86,7.86 20.61,7.86 28.47,0l27.74 -27.73c19,9.07 41.76,7.65 59.59,-4.28 -17.33,-9.56 -33.42,-21.61 -47.79,-35.98 -14.36,-14.37 -26.41,-30.46 -35.97,-47.81z"/>
   <path class="fil0" d="M278.35 391.33c-22.91,-22.9 -35.25,-52.43 -37.05,-82.48l-142.35 150.73c-63.93,67.69 -62.41,173.95 3.43,239.79 65.84,65.84 172.1,67.35 239.8,3.43l150.72 -142.35c-30.04,-1.8 -59.57,-14.14 -82.47,-37.05l-132.07 -132.07zm23.33 194.16l-56.94 56.94c-23.55,23.56 -61.86,23.56 -85.42,0 -23.55,-23.56 -23.55,-61.86 0,-85.42l56.94 -56.94c23.55,-23.54 61.87,-23.55 85.42,0 23.56,23.56 23.55,61.86 0,85.42z"/>
  </g>
  <g id="_2026936044032">
   <polygon class="fil0" points="2478.65,330.84 2504.64,304.84 2476.17,276.37 2431.27,321.28 2378.9,268.9 2423.8,224 2395.33,195.52 2350.42,240.43 2298.04,188.06 2342.95,143.15 2314.49,114.68 2175.06,254.1 2353.81,432.86 "/>
   <polygon class="fil0" points="2543.97,623.03 2722.47,801.52 2861.9,662.1 2833.44,633.63 2788.53,678.54 2736.15,626.16 2781.05,581.25 2752.59,552.79 2707.68,597.7 2655.31,545.32 2700.21,500.41 2671.74,471.94 2647.37,496.32 "/>
   <path class="fil0" d="M2343.05 493.66c-2.83,-3.9 -6,-7.63 -9.51,-11.14 -18.16,-18.16 -41.96,-27.25 -65.76,-27.25 -23.79,0 -47.6,9.08 -65.75,27.25 -36.31,36.31 -36.31,95.19 0,131.51 18.21,18.21 42.15,27.34 66.09,27.34 23.26,0 46.49,-8.62 64.43,-25.91l0.03 0.03 128.66 -128.66 28.47 28.47 -60.22 60.21c29,0.26 56.53,9.73 79.25,27.02l353.24 -432.91 -55.07 -55.07 -463.86 379.11z"/>
   <path class="fil0" d="M2494 642.99c-18.15,-18.16 -41.96,-27.23 -65.75,-27.23 -23.8,0 -47.6,9.07 -65.75,27.23 -36.32,36.31 -36.32,95.21 0,131.52 18.15,18.15 41.96,27.23 65.75,27.23 23.8,0 47.6,-9.08 65.75,-27.23 36.32,-36.31 36.32,-95.21 0,-131.52z"/>
  </g>
  <g id="_2026936047264">
   <path class="fil0" d="M7251.05 447.07l-74.96 32.13c-2.9,1.24 -5.97,1.85 -9.02,1.85 -4.42,0 -8.82,-1.28 -12.62,-3.78 -6.42,-4.24 -10.29,-11.43 -10.29,-19.12l0 -274.88c0,-7.7 3.87,-14.89 10.29,-19.12 6.43,-4.24 14.56,-4.95 21.64,-1.94l74.96 32.13 0 252.73z"/>
   <path class="fil0" d="M7640.46 389.42c-37.89,0 -68.72,-30.83 -68.72,-68.72 0,-37.89 30.83,-68.72 68.72,-68.72 37.9,0 68.72,30.83 68.72,68.72 0,37.89 -30.83,68.72 -68.72,68.72z"/>
   <path class="fil0" d="M7640.46 206.17c-63.15,0 -114.53,51.38 -114.53,114.53 0,63.16 51.38,114.53 114.53,114.53 63.16,0 114.54,-51.37 114.54,-114.53 0,-63.15 -51.38,-114.53 -114.54,-114.53zm0 320.69c-18.04,0 -35.97,-2.36 -53.28,-6.98l-290.31 -77.7 0 -242.95 290.31 -77.7c17.32,-4.62 35.24,-6.98 53.28,-6.98 113.68,0 206.16,92.48 206.16,206.16 0,113.68 -92.48,206.16 -206.16,206.16z"/>
   <path class="fil0" d="M7503.02 572.68l18.06 0 7.05 -21.17 47.2 12.64c21.22,5.66 43.13,8.53 65.12,8.53 27.12,0 53.2,-4.43 77.69,-12.4l-61.32 183.83c-13.99,35 -47.39,57.63 -85.09,57.63 -50.52,0 -91.63,-41.1 -91.63,-91.63 0,-11.78 2.21,-23.21 6.07,-32.74l19.62 -58.88 -2.78 0c-21.68,0 -42.19,-10.5 -54.85,-28.08 -12.68,-17.59 -16.16,-40.36 -9.29,-60.92l0.58 -1.71 44.33 11.86 -1.45 4.34c-2.21,6.63 -1.08,13.97 3.02,19.66 4.07,5.65 10.67,9.04 17.67,9.04z"/>
  </g>
  <g id="_2026936048992">
   <path class="fil0" d="M5205.3 754.77c0,25.94 21.03,46.97 46.97,46.97 25.94,0 46.97,-21.03 46.97,-46.97l0 -382.52 -93.95 0 0 382.52z"/>
   <path class="fil0" d="M5346.22 114.55l-73.82 0 0 109.5c0,10.83 -8.33,20.17 -19.16,20.67 -11.56,0.55 -21.11,-8.67 -21.11,-20.11l0 -110.06 -73.82 0c-11.12,0 -20.13,9.01 -20.13,20.14l0 19.61c0,62.99 22.15,123.98 62.58,172.29l4.53 5.41 93.95 0 4.53 -5.41c40.43,-48.3 62.58,-109.29 62.58,-172.29l0 -19.61c0,-11.12 -9.01,-20.14 -20.14,-20.14z"/>
   <path class="fil0" d="M5075.1 459.49l-67.11 0c-40.7,0 -73.82,33.12 -73.82,73.82l0 167.77 214.75 0 0 -167.77c0,-40.7 -33.12,-73.82 -73.82,-73.82z"/>
   <path class="fil0" d="M4934.17 781.61c0,11.12 9.01,20.13 20.14,20.13l174.48 0c11.12,0 20.14,-9.01 20.14,-20.13l0 -40.27 -214.75 0 0 40.27z"/>
   <path class="fil0" d="M4860.36 279.92c-0.01,-23.71 -11.65,-50.97 -31.16,-72.92 -20.08,-22.59 -45.49,-36.08 -67.97,-36.08 -14.25,0 -26.95,5.46 -35.76,15.37 -8.4,9.45 -12.8,22.24 -12.74,36.99l0 195.95 147.64 0 0 -139.31z"/>
   <path class="fil0" d="M4873.77 459.49l-174.48 0c-11.12,0 -20.14,9.01 -20.14,20.13l0 40.26 214.75 0 0 -40.26c0,-11.12 -9.01,-20.13 -20.14,-20.13z"/>
   <path class="fil0" d="M4679.16 727.92c0,40.7 33.12,73.82 73.82,73.82l67.11 0c40.7,0 73.82,-33.12 73.82,-73.82l0 -167.77 -214.75 0 0 167.77z"/>
  </g>
  <path class="fil1" d="M761.01 916.27l0 -916.27 277.54 0c87.87,0 155.24,19.43 202.13,58.09 46.89,38.86 70.34,95.26 70.34,168.97 0,58.3 -15.84,110.05 -47.32,155.46 -31.68,45.2 -76.04,80.05 -133.07,104.55l300.77 429.2 -159.47 0 -256.42 -387.8 -123.98 0 0 387.8 -130.54 0zm130.54 -485.38l42.03 0c79.84,0 140.46,-16.27 182.07,-48.79 41.61,-32.53 62.31,-80.05 62.31,-142.57 0,-94.63 -68.22,-141.94 -204.89,-141.94l-81.53 0 0 333.31z"/>
  <polygon id="1" class="fil1" points="1562.38,916.27 1562.38,0 2074.38,0 2074.38,97.59 1692.92,97.59 1692.92,391.61 2012.49,391.61 2012.49,489.18 1692.92,489.18 1692.92,818.68 2100.99,818.68 2100.99,916.27 "/>
  <path class="fil1" d="M2935.81 894.54l0 -872.81 289.93 0c86.52,0 156.33,9.66 209.65,28.98 53.31,19.11 99.39,51.91 138.22,97.78 61.77,73.24 92.55,169.41 92.55,288.92 0,135.01 -36.22,244.26 -108.45,327.96 -39.23,46.07 -84.71,79.07 -136.41,99.19 -51.71,19.92 -116.3,29.98 -193.76,29.98l-291.74 0zm124.34 -92.95l158.34 0c113.08,0 193.16,-30.39 240.24,-91.35 50.5,-64.78 75.85,-151.7 75.85,-260.96 0,-102.42 -24.94,-183.1 -74.84,-241.44 -30.18,-35.81 -66.2,-60.16 -108.25,-73.44 -42.05,-13.08 -105.23,-19.72 -189.53,-19.72l-101.81 0 0 686.91z"/>
  <path id="1" class="fil1" d="M4197.34 916.27c-123.73,0 -222.72,-41.64 -296.97,-124.74 -74.05,-83.1 -111.07,-194.16 -111.07,-333.39 0,-139.24 37.02,-250.3 111.07,-333.4 74.24,-83.1 173.23,-124.74 296.97,-124.74 123.74,0 222.73,41.64 296.98,124.74 74.05,83.1 111.07,194.16 111.07,333.4 0,139.23 -37.02,250.29 -111.07,333.39 -74.24,83.1 -173.23,124.74 -296.98,124.74zm0 -92.95c86.92,0 154.73,-32.39 203.42,-96.98 48.69,-64.59 73.03,-154.32 73.03,-269.41 0,-114.28 -24.34,-203.41 -73.03,-267.6 -48.69,-64.18 -116.5,-96.37 -203.42,-96.37 -86.92,0 -154.72,32.19 -203.41,96.37 -48.69,64.18 -73.03,153.32 -73.03,267.6 0,115.09 24.34,204.82 73.03,269.41 48.69,64.59 116.49,96.98 203.41,96.98z"/>
  <polygon class="fil1" points="5440.17,916.27 5440.17,0 5619.72,0 5873.39,709.49 6134.46,0 6295.61,0 6295.61,916.27 6173.96,916.27 6173.96,171.51 5921.54,855.44 5796.29,855.44 5551.7,169.61 5551.7,916.27 "/>
  <polygon id="1" class="fil1" points="6531.76,916.27 6531.76,0 7043.75,0 7043.75,97.59 6662.29,97.59 6662.29,391.61 6981.87,391.61 6981.87,489.18 6662.29,489.18 6662.29,818.68 7070.36,818.68 7070.36,916.27 "/>
 </g>
</svg>
